<svg xmlns="http://www.w3.org/2000/svg" xmlns:xlink="http://www.w3.org/1999/xlink" width="630" height="756" viewBox="0 0 630 756">
    <defs>
        <filter id="i6gbsuns7a" width="141.1%" height="119.8%" x="-20.5%" y="-9.9%" filterUnits="objectBoundingBox">
            <feOffset dx="3" dy="6" in="SourceAlpha" result="shadowOffsetOuter1"/>
            <feGaussianBlur in="shadowOffsetOuter1" result="shadowBlurOuter1" stdDeviation="15"/>
            <feColorMatrix in="shadowBlurOuter1" result="shadowMatrixOuter1" values="0 0 0 0 0 0 0 0 0 0 0 0 0 0 0 0 0 0 0.08 0"/>
            <feMerge>
                <feMergeNode in="shadowMatrixOuter1"/>
                <feMergeNode in="SourceGraphic"/>
            </feMerge>
        </filter>
        <filter id="aulr54f9th" width="174.7%" height="173.6%" x="-37.3%" y="-36.8%" filterUnits="objectBoundingBox">
            <feGaussianBlur in="SourceGraphic" stdDeviation="40.8"/>
        </filter>
        <filter id="ybda1dpv5i" width="127.5%" height="136.2%" x="-13.7%" y="-18.1%" filterUnits="objectBoundingBox">
            <feOffset in="SourceAlpha" result="shadowOffsetOuter1"/>
            <feGaussianBlur in="shadowOffsetOuter1" result="shadowBlurOuter1" stdDeviation="12"/>
            <feColorMatrix in="shadowBlurOuter1" values="0 0 0 0 0 0 0 0 0 0 0 0 0 0 0 0 0 0 0.07 0"/>
        </filter>
        <filter id="51aja89n3k" width="127.7%" height="136.6%" x="-13.3%" y="-17.6%" filterUnits="objectBoundingBox">
            <feOffset dx="2" dy="2" in="SourceAlpha" result="shadowOffsetOuter1"/>
            <feGaussianBlur in="shadowOffsetOuter1" result="shadowBlurOuter1" stdDeviation="16.5"/>
            <feColorMatrix in="shadowBlurOuter1" values="0 0 0 0 0 0 0 0 0 0 0 0 0 0 0 0 0 0 0.09 0"/>
        </filter>
        <path id="hptg9gjgrb" d="M71.517 0c2.134 0 3.201 1.068 3.201 3.203v2.134c0 9.432 7.646 17.078 17.079 17.078h121.685c9.432 0 17.079-7.646 17.079-17.078V3.203c0-2.135 1.067-3.203 3.201-3.203h30.468c14.274 0 19.45 1.486 24.669 4.277 5.218 2.79 9.314 6.886 12.105 12.104 2.79 5.218 4.277 10.394 4.277 24.668v583.938c0 14.274-1.486 19.45-4.277 24.668-2.791 5.218-6.887 9.313-12.105 12.104-5.219 2.79-10.395 4.277-24.67 4.277H41.052c-14.274 0-19.45-1.486-24.669-4.277-5.219-2.79-9.314-6.886-12.105-12.104C1.487 644.437 0 639.26 0 624.987V41.049c0-14.274 1.486-19.45 4.277-24.668 2.791-5.218 6.886-9.313 12.105-12.104C21.6 1.487 26.777 0 41.051 0h30.466z"/>
        <path id="tkwv8rdtde" d="M0 0H306V663H0z"/>
        <path id="qlhhscodnj" d="M23.742 0C10.63 0 0 10.629 0 23.743v151.19c0 13.114 10.633 23.744 23.749 23.744H238.25c13.116 0 23.749-10.63 23.749-23.743V23.744C262 10.63 251.364 0 238.258 0H23.742z"/>
        <path id="tzuji5cjul" d="M32.994 0C14.772 0 0 14.771 0 32.996v210.108C0 261.327 14.777 276.1 33.003 276.1h298.093c18.228 0 33.004-14.771 33.004-32.996V32.996C364.1 14.773 349.32 0 331.106 0H32.994z"/>
        <linearGradient id="vr13tn8b7c" x1="100%" x2="100%" y1="0%" y2="89.649%">
            <stop offset="0%" stop-color="#F7FAF8"/>
            <stop offset="100%" stop-color="#F2FAF8"/>
        </linearGradient>
        <linearGradient id="aeryqdogdf" x1="100%" x2="100%" y1="0%" y2="89.649%">
            <stop offset="0%" stop-color="#F7FAF8"/>
            <stop offset="100%" stop-color="#F2FAF8"/>
        </linearGradient>
    </defs>
    <g fill="none" fill-rule="evenodd">
        <g>
            <g>
                <g>
                    <g opacity=".6">
                        <path fill="#E4F5F2" d="M142.575 498.021l37.871-37.872.462-.462.462-.462L311.902 328.69l.451-.45.462-.463 126.496-126.5c-.557-2.045-1.144-4.087-1.76-6.126l-128.695 128.7-.44.44-.451.45-130.533 130.536-.462.462-.462.462-39.061 39.063c-3.924-2.167-7.787-4.43-11.585-6.788l41.462-41.493.462-.462.462-.462 130.51-130.514.451-.45.462-.463 130.543-130.536.462-.462.451-.451 1.815-1.815c-.733-1.907-1.467-3.81-2.2-5.709l-3.586 3.586-.44.451-.462.462-130.52 130.525-.463.462-.45.451-130.533 130.536-.462.462-.462.462-42.336 42.347c-3.703-2.41-7.34-4.911-10.912-7.5l44.008-44.065.462-.462.462-.462L285.613 302.4l.451-.45.462-.463L417.015 170.95l.462-.462.45-.45 7.26-7.26c-.828-1.783-1.679-3.561-2.552-5.336l-8.601 8.657-.462.451-.462.462-130.521 130.525-.462.462-.451.451-130.533 130.547-.462.462-.462.462-44.627 44.629c-3.481-2.638-6.895-5.36-10.238-8.164l45.692-45.693.462-.462.462-.462 130.499-130.47.45-.452.463-.462 130.532-130.58.462-.462.451-.45 11.462-11.463c-.946-1.672-1.914-3.333-2.904-4.983L400.889 152.9l-.462.506-.462.462-130.521 130.525-.462.462-.45.451-130.533 130.493-.462.462-.462.462-45.975 46.02c-3.268-2.86-6.465-5.8-9.588-8.815l46.39-46.39.461-.462.462-.462 130.5-130.515.45-.45.462-.463L390.77 144.66l.462-.462.45-.45 14.542-14.543c-1.056-1.562-2.134-3.113-3.234-4.653l-15.256 15.257-.418.451-.462.462L256.3 271.247l-.462.462-.451.451-130.533 130.537-.462.462-.462.462-46.389 46.39c-3.055-3.077-6.036-6.23-8.938-9.453l46.143-46.144.462-.462.462-.462 130.51-130.525.45-.451.463-.462 130.532-130.537.462-.462.451-.45 16.5-16.5c-1.16-1.467-2.34-2.934-3.542-4.4l-16.95 16.95-.43.462-.462.462-130.499 130.526-.462.462-.451.45L111.71 389.553l-.462.462-.462.462-45.897 45.866c-2.841-3.294-5.602-6.658-8.28-10.09l44.97-44.972.462-.462.462-.462L233.035 249.82l.451-.451.462-.462L364.481 118.37l.462-.462.45-.45 17.523-17.545c-1.261-1.357-2.541-2.706-3.839-4.048l-17.621 17.643-.451.451-.462.462L230.02 244.958l-.462.462-.45.45L98.565 376.408l-.462.462-.462.462-44.446 44.447c-2.629-3.521-5.172-7.11-7.626-10.765l42.888-42.89.45-.461.463-.462 130.52-130.525.452-.451.462-.462 130.532-130.537.462-.462.451-.45 17.533-17.534c-1.37-1.27-2.75-2.52-4.135-3.751L348.3 100.375l-.45.45-.463.463-130.565 130.525-.462.462-.451.45L85.421 363.263l-.462.462-.462.462-42.055 42.063c-2.417-3.772-4.74-7.609-6.967-11.508l39.804-39.806.484-.418.462-.462L206.757 223.53l.451-.451.462-.462L338.192 92.08l.462-.462.45-.451 16.5-16.5c-1.467-1.166-2.933-2.314-4.4-3.443L335.167 87.23l-.451.45-.462.463L203.72 218.668l-.462.462-.45.45L72.275 350.118l-.462.462-.462.462-38.68 38.667c-2.17-4-4.239-8.062-6.205-12.184l35.69-35.69.462-.462.462-.462L193.6 210.385l.452-.451.462-.462L325.047 78.936l.462-.462.451-.451 14.52-14.52c-1.577-1.064-3.161-2.109-4.752-3.135l-13.706 13.706-.45.45-.463.463-130.532 130.536-.462.462-.451.45L59.132 336.973l-.462.462-.462.462-34.238 34.238c-1.918-4.267-3.727-8.596-5.422-12.98l30.464-30.465.462-.462.462-.462L180.457 197.24l.451-.451.462-.462L311.902 65.79l.462-.462.451-.451 11.44-11.44c-1.687-.954-3.38-1.889-5.082-2.805l-10.295 10.296-.451.45-.462.463-130.533 130.536-.462.462-.45.45L45.986 323.828l-.462.462-.462.462-28.658 28.66c-1.64-4.56-3.16-9.178-4.553-13.85l24.005-24.006.473-.473.462-.462 130.532-130.525.45-.451.463-.462L298.758 52.646l.462-.462.45-.451 7.228-7.227c-1.804-.836-3.62-1.65-5.445-2.442l-5.73 5.73-.452.452-.462.462-130.521 130.525-.462.462-.451.451L32.843 310.682l-.462.462-.462.462-21.816 21.817c-1.33-4.889-2.521-9.834-3.572-14.831l16.181-16.182.517-.473.462-.462L154.124 170.95l.451-.45.462-.463L285.613 39.501l.462-.462.451-.451 1.782-1.782c-1.826-.667-3.659-1.313-5.5-1.936l-.34-.11-.341.34-.462.463-130.522 130.536-.462.462-.45.451L19.697 297.537l-.462.462-.462.462-13.54 13.541c-.966-5.257-1.776-10.57-2.426-15.931l6.781-6.773.44-.506.462-.462 130.544-130.525.45-.45.463-.463 126.43-126.444c-2.084-.565-4.173-1.104-6.27-1.617l-124.11 124.068-.461.462-.451.451L6.554 284.392l-.462.462-.462.462-3.59 3.59c-.537-5.731-.89-11.516-1.054-17.349L127.89 144.66l.451-.45.462-.463 118.08-118.084c-2.258-.396-4.516-.763-6.775-1.1L124.854 139.798l-.462.462-.45.451L.88 263.776c.005-6.422.24-12.79.696-19.097l113.17-113.164.45-.45.463-.463L223.565 22.693c-2.464-.198-4.928-.363-7.403-.484l-104.496 104.5-.462.461-.451.451L2.345 236.024c.767-7.287 1.831-14.484 3.179-21.582l96.077-96.072.451-.45.462-.463L197.958 22c-2.75.077-5.5.198-8.25.363l-91.132 91.134-.462.462-.45.451L7.62 204.463c2.015-8.742 4.464-17.317 7.323-25.703l73.513-73.535.45-.462.463-.462 79.857-79.859c-3.168.462-6.314.99-9.46 1.573l-74.335 74.338-.462.462-.451.45-64.946 64.972c5.014-12.57 10.967-24.666 17.772-36.199l38-38.001.418-.418.462-.462 54.686-54.688C170.184 13.295 215.98 0 264.88 0c145.803 0 264 118.197 264 264s-118.197 264-264 264c-44.135 0-85.741-10.83-122.305-29.979zm-89.61-391.49c15.397-20.688 33.752-39.043 54.439-54.441L72.32 87.175l-.462.462-.45.45-18.443 18.443zm294.884 257.182l-.45.45-130.577 130.548-.462.462-.462.462L202.522 509c2.651 0 5.302 0 7.953-.066l9.372-9.372.462-.462.462-.462 130.565-130.525.451-.451.462-.462 95.565-95.502c.066-2.65.077-5.302.066-7.952l-99.547 99.549-.484.418zm-26.289-26.279l-.45.451-130.533 130.536-.462.462-.462.462-34.649 34.65c2.2.455 4.4.876 6.6 1.265l31.976-31.977.462-.462.462-.462 130.543-130.525.451-.451.462-.462 118.147-118.15c-.389-2.2-.81-4.4-1.265-6.6l-120.82 120.801-.462.462zm13.145 13.145l-.451.451L203.72 481.566l-.462.462-.462.462-25.079 25.08c2.398.264 4.8.491 7.205.682l21.812-21.813.462-.462.462-.462L338.192 354.98l.45-.451.463-.462L447.088 246.08c-.191-2.406-.418-4.807-.682-7.205l-111.24 111.242-.461.462zm39.411 39.424l-.45.45L262.03 502.115c3.608-.873 7.198-1.833 10.769-2.882l104.826-104.83.451-.45.462-.462 59.552-59.554c1.041-3.571 2.002-7.16 2.882-10.769L374.6 389.541l-.484.462zm13.2 13.145l-.451.45-85.192 85.195c5.133-2.2 10.167-4.605 15.102-7.216l74.039-74.04.45-.451.463-.462 28.764-28.765c2.588-4.965 4.993-10 7.215-15.103l-39.917 39.919-.473.473zm-26.322-26.29l-.451.45L230.23 507.626c3.003-.319 6.006-.682 8.998-1.1l125.253-125.267.45-.451.463-.462 79.978-79.98c.429-2.993.792-5.996 1.1-8.999l-85.038 85.04-.44.452z" transform="translate(-930 -1140) translate(0 1080) translate(930 60) translate(.12 124)"/>
                        <path fill="#E0EFED" fill-rule="nonzero" d="M551.05 208.19l16.02-16.04c1.18 1.22 2.343 2.447 3.49 3.68l-15.93 15.95-.41.41-.42.42-118.67 118.67-.42.42-.41.41-118.67 118.67-.42.42-.42.42-57.1 57.1c-1.24-1.147-2.467-2.31-3.68-3.49l57.2-57.2.42-.42.42-.42 118.68-118.67.41-.41.42-.42 118.66-118.67.42-.42.41-.41zm59.33 60.17l.4-.41 3.26-3.26c.667 1.727 1.333 3.457 2 5.19l-1.65 1.65-.41.41-.42.42-118.68 118.67-.42.42-.41.41L375.4 510.51l-.42.42-.42.42-42.81 42.84c-1.733-.667-3.463-1.333-5.19-2l44.4-44.41.42-.42.42-.42 118.67-118.67.41-.41.42-.42 118.66-118.66.42-.42zm-23.9-23.9l.42-.46 11.36-11.32c.9 1.5 1.78 3.01 2.64 4.53l-10.42 10.42-.41.41-.42.42-118.67 118.71-.42.42-.41.41-118.64 118.61-.42.42-.42.42-51.58 51.58c-1.52-.86-3.03-1.74-4.53-2.64l52.5-52.55.42-.42.42-.42 118.67-118.63.41-.41.42-.42 118.66-118.66.42-.42zm-23.92-23.9l.39-.42 15.41-15.41c1.093 1.333 2.167 2.667 3.22 4l-15 15-.41.41-.42.42-118.67 118.67-.42.42-.41.41L327.6 462.72l-.42.42-.42.42-56.2 56.2c-1.333-1.053-2.667-2.127-4-3.22l56.6-56.56.42-.42.42-.42 118.67-118.67.41-.41.42-.42 118.64-118.66.42-.42zm35.87 35.85l.42-.41 7.82-7.87c.793 1.613 1.567 3.23 2.32 4.85l-6.6 6.6-.41.41-.42.42-118.63 118.67-.42.42-.41.41-118.7 118.65-.42.42-.42.42-47.7 47.76c-1.627-.753-3.243-1.527-4.85-2.32l49-49 .42-.42.42-.42 118.67-118.68.41-.41.42-.42 118.66-118.66.42-.42zm-23.87-23.9l.38-.41 13.87-13.87c1 1.4 1.98 2.81 2.94 4.23l-13.22 13.22-.41.41-.42.42-118.67 118.66-.42.42-.41.41-118.64 118.65-.42.42-.42.42-54.38 54.38c-1.42-.96-2.83-1.94-4.23-2.94l55-55 .42-.42.42-.42 118.67-118.67.41-.41.42-.42 118.69-118.66.42-.42zm-35.88 203.14l.44-.38 90.5-90.5c.01 2.41 0 4.82-.06 7.23l-86.88 86.82-.42.42-.41.41-118.7 118.66-.42.42-.42.42-8.52 8.52c-2.41.06-4.82.06-7.23.06l12.16-12.15.42-.42.42-.42 118.71-118.68.41-.41zm-23.9-23.89l.42-.42 109.84-109.82c.413 2 .797 4 1.15 6L518.78 414.93l-.42.42-.41.41-118.68 118.66-.42.42-.42.42-29.07 29.07c-2-.353-4-.737-6-1.15l31.5-31.5.42-.42.42-.42 118.67-118.67.41-.41zm11.95 11.95l.42-.42 101.13-101.13c.24 2.18.447 4.363.62 6.55l-98.17 98.17-.42.42-.41.41-118.67 118.67-.42.42-.42.42-19.83 19.83c-2.187-.173-4.37-.38-6.55-.62l22.8-22.8.42-.42.42-.42 118.67-118.67.41-.41zm-23.9-23.9l.4-.4 117-117c.56 1.853 1.093 3.71 1.6 5.57l-115 115-.42.42-.41.41-118.67 118.67-.42.42-.42.42-36.65 36.65c-1.86-.513-3.717-1.047-5.57-1.6l38.64-38.64.42-.42.42-.42 118.67-118.67.41-.41zm59.73 59.74l.44-.42 60.34-60.34c-.8 3.28-1.673 6.543-2.62 9.79l-54.14 54.14-.42.42-.41.41-95.3 95.3c-3.247.953-6.51 1.827-9.79 2.62l101.49-101.51.41-.41zm12 11.95l.43-.43 36.29-36.29c-2.02 4.64-4.207 9.217-6.56 13.73l-26.15 26.15-.42.42-.41.41-67.31 67.31c-4.487 2.373-9.063 4.56-13.73 6.56l77.45-77.45.41-.41zm-23.93-23.9l.4-.41 77.31-77.31c-.28 2.73-.61 5.46-1 8.18l-72.71 72.71-.42.42-.41.41-113.87 113.88c-2.72.38-5.45.71-8.18 1l118.47-118.47.41-.41zM303.27 200.24l-.41.42-113.73 113.76c.43-2.87.9-5.74 1.43-8.6l108.72-108.76.41-.41.42-.42 67.58-67.58c2.86-.53 5.72-1.01 8.6-1.43l-72.6 72.6-.42.42zm-23.9-23.9l-.41.41-67.06 67.06c3.06-5.84 6.393-11.563 10-17.17l53.47-53.47.41-.41.42-.42 12.32-12.32c5.607-3.613 11.33-6.947 17.17-10l-25.9 25.9-.42.42zm11.95 11.95l-.38.38-95.15 95.15c1.033-3.54 2.16-7.057 3.38-10.55l88.19-88.19.41-.41.42-.42 47-47c3.493-1.213 7.01-2.34 10.55-3.38l-54 54-.42.42zm11.95 250.95l-.41.42-57.1 57.1c-1.153-1.24-2.29-2.493-3.41-3.76l56.91-56.92.42-.42.42-.42 118.63-118.67.41-.41.42-.42 118.7-118.66.42-.42.41-.41 15.77-15.77c1.26 1.12 2.513 2.257 3.76 3.41l-15.94 15.94-.41.41-.42.42-118.67 118.67-.42.42-.41.41-118.66 118.66-.42.42zm-23.9-23.9l-.42.42-54.36 54.36c-.967-1.433-1.917-2.873-2.85-4.32l53.62-53.62.42-.42.42-.42 118.67-118.67.41-.41.42-.42 118.67-118.67.42-.42.41-.41 12.46-12.46c1.447.933 2.887 1.883 4.32 2.85l-13.2 13.2-.41.41-.42.42-118.67 118.67-.42.42-.41.41-118.66 118.66-.42.42zm-23.9-23.9l-.43.43-47.73 47.73c-.76-1.647-1.5-3.297-2.22-4.95l46.37-46.37.42-.42.42-.42 118.67-118.67.41-.41.42-.42 118.66-118.66.42-.42.41-.41 5.21-5.21c1.66.72 3.31 1.46 4.95 2.22l-6.57 6.57-.41.41-.42.42-118.66 118.67-.42.42-.41.41-118.67 118.66-.42.42zm-23.91-23.9l-.4.46-36.62 36.57c-.513-1.893-1.003-3.793-1.47-5.7l34.49-34.49.42-.42.42-.42 118.67-118.71.41-.41.42-.42 112.83-112.79c1.907.467 3.807.957 5.7 1.47L351.49 247.63l-.42.42-.41.41-118.68 118.66-.42.42zm-23.89-23.9l-.41.42-19.76 19.76c-.18-2.24-.33-4.48-.44-6.73l16.6-16.61.42-.42.42-.42 118.63-118.62.41-.41.42-.42 95-95c2.25.11 4.49.26 6.73.44l-98.1 98.1-.42.42-.41.41-118.67 118.66-.42.42zm83.65 83.65l-.44.38-56.19 56.19c-1.06-1.333-2.103-2.667-3.13-4l55.75-55.73.42-.42.42-.42 118.67-118.67.41-.41.42-.42 118.67-118.66.42-.42.41-.41 14.58-14.55c1.333 1.027 2.667 2.07 4 3.13l-15 15-.41.41-.42.42-118.66 118.67-.42.42-.41.41-118.67 118.66-.42.42zm-23.9-23.9l-.42.42-51.56 51.56c-.873-1.533-1.723-3.073-2.55-4.62l50.52-50.52.42-.42.42-.42 118.67-118.67.41-.41.42-.42 118.67-118.67.42-.42.41-.41 9.36-9.36c1.547.833 3.087 1.683 4.62 2.55l-10.4 10.4-.41.41-.42.42-118.67 118.67-.42.42-.41.41-118.66 118.66-.42.42zm-23.86-23.9l-.47.43-42.77 42.77c-.647-1.76-1.27-3.527-1.87-5.3l41.06-41.06.42-.42.42-.42 118.67-118.66.41-.41.42-.42 118.66-118.67.42-.42.31-.31.31.1c1.673.567 3.34 1.153 5 1.76l-1.62 1.62-.41.41-.42.42-118.71 118.67-.42.42-.41.41-118.58 118.66-.42.42zm-23.94-23.9l-.44.43-29 29c-.36-2.047-.693-4.1-1-6.16l26.43-26.43.42-.42.42-.42 118.67-118.67.41-.41.42-.42 104.78-104.76c2.053.307 4.107.64 6.16 1L339.54 235.68l-.42.42-.41.41-118.67 118.66-.42.42zm-23.9-23.9l-.41.38-8.43 8.43c.06-2.5.18-5 .33-7.5l4.51-4.47.42-.42.42-.42 118.67-118.68.41-.41.42-.42 82.85-82.85c2.5-.15 5-.26 7.5-.33l-86.77 86.78-.42.42-.41.41-118.67 118.66-.42.42z" transform="translate(-930 -1140) translate(0 1080) translate(930 60) translate(.12 124)"/>
                    </g>
                    <g filter="url(#i6gbsuns7a)" transform="translate(-930 -1140) translate(0 1080) translate(930 60) translate(120.213 26.078)">
                        <g>
                            <path fill="#FFF" d="M60.41 0h214.753c20.935 0 28.527 2.18 36.18 6.273 7.655 4.093 13.661 10.1 17.755 17.753 4.093 7.653 6.273 15.245 6.273 36.18v575.51c0 20.936-2.18 28.527-6.273 36.18-4.094 7.654-10.1 13.66-17.754 17.753-7.654 4.093-15.246 6.273-36.181 6.273H60.41c-20.935 0-28.527-2.18-36.18-6.273-7.655-4.093-13.661-10.1-17.755-17.753-4.093-7.653-6.273-15.244-6.273-36.18V60.207c0-20.935 2.18-28.527 6.273-36.18 4.094-7.654 10.1-13.66 17.754-17.753C31.883 2.18 39.475 0 60.41 0z"/>
                            <path fill="#EDEDED" d="M151.775 23.482h32.023c1.179 0 2.135.956 2.135 2.135 0 1.179-.956 2.134-2.135 2.134h-32.023c-1.179 0-2.135-.955-2.135-2.134 0-1.18.956-2.135 2.135-2.135z" opacity=".4"/>
                            <ellipse cx="201.944" cy="25.617" fill="#EDEDED" opacity=".4" rx="4.27" ry="4.269"/>
                        </g>
                        <g transform="translate(15.146 14.943)">
                            <mask id="31ujoc9wid" fill="#fff">
                                <use xlink:href="#hptg9gjgrb"/>
                            </mask>
                            <use fill="url(#vr13tn8b7c)" xlink:href="#hptg9gjgrb"/>
                            <g mask="url(#31ujoc9wid)">
                                <g transform="translate(0 3)">
                                    <mask id="x4o21pkfbg" fill="#fff">
                                        <use xlink:href="#tkwv8rdtde"/>
                                    </mask>
                                    <use fill="url(#aeryqdogdf)" xlink:href="#tkwv8rdtde"/>
                                    <g mask="url(#x4o21pkfbg)">
                                        <path fill="url(#aeryqdogdf)" d="M0 0H306V663H0z"/>
                                        <path fill="#0DB0B0" d="M126.457 402.535c76.055 47.554 177.494 22.396 226.57-56.191 49.078-78.588 27.207-180.845-48.847-228.399-76.055-47.553-177.494-22.395-226.571 56.192s-27.206 180.845 48.848 228.398z" filter="url(#aulr54f9th)" opacity=".05"/>
                                    </g>
                                    <g mask="url(#x4o21pkfbg)">
                                        <g>
                                            <path fill="#F2FAF8" d="M24.476 0C10.958 0 0 10.964 0 24.478V67.77h306V24.478C306 10.96 295.042 0 281.524 0H24.476z" transform="translate(0 595.23)"/>
                                            <g transform="translate(0 595.23) translate(0 14.697)">
                                                <g fill="#D3D9E0" transform="translate(0 24)">
                                                    <rect width="109.344" height="4.08" x="98.736" y="17.32" rx="2.04"/>
                                                </g>
                                                <g>
                                                    <path fill="#BEC9C7" fill-rule="nonzero" d="M8.27 17.778v-2.497c0-.637.52-1.154 1.162-1.154h2.345c.308 0 .604.122.821.338.218.217.34.51.34.816v2.497c-.001.265.103.52.291.708.188.188.444.294.71.294h1.6c.748.001 1.465-.292 1.995-.816.529-.525.826-1.236.826-1.979V8.873c0-.6-.268-1.169-.73-1.553L12.185 3c-.947-.757-2.303-.732-3.222.058L3.645 7.32c-.485.374-.775.945-.789 1.554v7.105c0 1.547 1.263 2.802 2.82 2.802H7.24c.554 0 1.004-.444 1.008-.995l.022-.007z" transform="translate(46.512)"/>
                                                </g>
                                                <ellipse cx="153.408" cy="28.578" fill="#04A5A6" rx="2.448" ry="2.45"/>
                                                <g>
                                                    <path fill="#444" fill-rule="nonzero" d="M15.272 4.722c1.457 1.46 2.272 3.429 2.272 5.492 0 2.715-1.427 5.236-3.753 6.64-2.325 1.404-5.217 1.481-7.62.202h-.023c-.232-.094-.419-.256-.636-.365-.24-.1-.512-.116-.759-.038-.574.2-1.156.364-1.753.503-.31.008-.403-.178-.403-.48.14-.613.326-1.22.544-1.808.084-.256.062-.527-.07-.769l-.155-.301c-.574-1.094-.876-2.312-.876-3.544v-.048c0-2.055.813-4.033 2.27-5.484C5.769 3.264 7.738 2.45 9.793 2.45c2.054 0 4.03.814 5.48 2.272zm-1.907 6.485c.55 0 .992-.45.992-.993 0-.55-.442-.993-.992-.993-.543 0-.992.442-.992.993 0 .543.45.993.992.993zm-3.573 0c.55 0 .991-.45.991-.993 0-.55-.44-.993-.991-.993-.55 0-.993.442-.993.993 0 .543.443.993.993.993zm-3.574 0c.542 0 .993-.45.993-.993 0-.55-.45-.993-.993-.993-.55 0-.993.442-.993.993 0 .543.442.993.993.993z" transform="translate(143.616)"/>
                                                </g>
                                                <g>
                                                    <path fill="#BEC9C7" fill-rule="nonzero" d="M9.794 11.268c-2.366 0-4.285-1.974-4.285-4.41 0-2.434 1.919-4.408 4.285-4.408 2.367 0 4.285 1.974 4.285 4.409 0 2.435-1.918 4.41-4.285 4.41zm6.311 3.938c.287.566.287 1.241 0 1.808-.38.727-1.235 1.206-2.647 1.453-.63.127-1.266.21-1.906.247-.593.066-1.186.066-1.786.066h-1.08c-.226-.03-.445-.044-.657-.044-.64-.033-1.277-.113-1.906-.24-1.362-.261-2.252-.726-2.633-1.453-.147-.281-.225-.595-.226-.915-.003-.321.072-.639.219-.922.374-.727 1.264-1.2 2.64-1.453.632-.124 1.271-.204 1.913-.24 1.175-.095 2.355-.095 3.53 0 .64.037 1.276.117 1.906.24 1.363.276 2.252.726 2.633 1.453z" transform="translate(239.088)"/>
                                                </g>
                                            </g>
                                        </g>
                                    </g>
                                    <g mask="url(#x4o21pkfbg)">
                                        <g transform="translate(17.952 78.384)">
                                            <rect width="270.096" height="34.293" fill="#FFF" opacity=".8" rx="17.147"/>
                                            <rect width="89.76" height="34.293" fill="#CFECEC" rx="17.147"/>
                                            <text font-family="AppleSDGothicNeo-Medium, Apple SD Gothic Neo" font-size="11.424" font-weight="400">
                                                <tspan x="28.601" y="20.619" fill="#04A5A6">AI 상담</tspan>
                                            </text>
                                            <text font-family="AppleSDGothicNeo-Medium, Apple SD Gothic Neo" font-size="11.424" font-weight="400">
                                                <tspan x="113.374" y="20.619" fill="#999">채팅 상담</tspan>
                                            </text>
                                            <text font-family="AppleSDGothicNeo-Medium, Apple SD Gothic Neo" font-size="11.424" font-weight="400">
                                                <tspan x="203.95" y="20.619" fill="#999">쪽지 상담</tspan>
                                            </text>
                                        </g>
                                    </g>
                                    <g mask="url(#x4o21pkfbg)">
                                        <g fill="#1E1E1E" fill-rule="nonzero" stroke="#1E1E1E" stroke-width=".5">
                                            <path d="M10.734 3.818c-.191-.189-.502-.189-.693 0L3.943 9.862l-6.11-6.044c-.192-.189-.502-.189-.694 0-.191.19-.191.497 0 .686l6.445 6.375c.096.094.215.142.347.142.12 0 .25-.048.347-.142l6.444-6.375c.204-.189.204-.496.012-.686z" transform="translate(20.952 46.54) rotate(90 3.936 7.349)"/>
                                        </g>
                                        <text fill="#444" font-family="AppleSDGothicNeo-SemiBold, Apple SD Gothic Neo" font-size="16.32" font-weight="500" letter-spacing=".408">
                                            <tspan x="41.616" y="59.097">나의 서비스 이용 내역</tspan>
                                        </text>
                                        <g>
                                            <path d="M0 0H306V35.904H0z"/>
                                            <g transform="translate(274.176 13.872)">
                                                <rect width="17.136" height="8.432" x=".408" y=".68" stroke="#000" stroke-width=".816" opacity=".35" rx="2.176"/>
                                                <path fill="#000" fill-rule="nonzero" d="M18.768 3.264v3.264c.657-.276 1.084-.92 1.084-1.632 0-.712-.427-1.356-1.084-1.632" opacity=".4"/>
                                                <rect width="14.688" height="5.984" x="1.632" y="1.904" fill="#000" fill-rule="nonzero" rx="1.088"/>
                                            </g>
                                            <path fill="#000" fill-rule="nonzero" d="M263.838 16c1.808 0 3.547.695 4.857 1.94.099.097.257.096.354-.002l.943-.952c.05-.05.077-.117.076-.186 0-.07-.028-.137-.078-.186-3.44-3.296-8.866-3.296-12.305 0-.05.049-.078.116-.079.186 0 .07.027.137.076.186l.944.952c.097.098.255.1.353.003 1.311-1.246 3.05-1.94 4.859-1.94zm0 3.097c.993 0 1.951.37 2.687 1.036.1.095.257.093.354-.004l.942-.952c.05-.05.077-.118.077-.188-.001-.07-.03-.138-.08-.187-2.243-2.086-5.716-2.086-7.958 0-.051.05-.08.116-.08.187-.001.07.026.138.076.188l.942.952c.097.097.254.1.354.004.735-.666 1.693-1.035 2.686-1.036zm1.81 2.272c.05-.049.078-.117.077-.188-.001-.07-.032-.137-.084-.185-1.041-.88-2.566-.88-3.607 0-.052.048-.082.115-.084.185-.001.07.026.139.077.188l1.63 1.645c.047.049.113.076.18.076.069 0 .134-.027.181-.076l1.63-1.645zM240.448 19.856h.816c.45 0 .816.365.816.816v1.632c0 .45-.365.816-.816.816h-.816c-.45 0-.816-.365-.816-.816v-1.632c0-.45.365-.816.816-.816zm3.808-1.632h.816c.45 0 .816.365.816.816v3.264c0 .45-.365.816-.816.816h-.816c-.45 0-.816-.365-.816-.816V19.04c0-.45.365-.816.816-.816zm3.808-1.904h.816c.45 0 .816.365.816.816v5.168c0 .45-.365.816-.816.816h-.816c-.45 0-.816-.365-.816-.816v-5.168c0-.45.365-.816.816-.816zm3.808-1.904h.816c.45 0 .816.365.816.816v7.072c0 .45-.365.816-.816.816h-.816c-.45 0-.816-.365-.816-.816v-7.072c0-.45.365-.816.816-.816z"/>
                                            <g fill="#000" font-family="SFProText-Semibold, SF Pro Text" font-size="11.424" font-weight="500" letter-spacing="-.228">
                                                <text transform="translate(17 10)">
                                                    <tspan x="10.039" y="14.004">9:4</tspan> <tspan x="28.358" y="14.004">1</tspan>
                                                </text>
                                            </g>
                                        </g>
                                    </g>
                                </g>
                            </g>
                        </g>
                    </g>
                    <g transform="translate(-930 -1140) translate(0 1080) translate(930 60) translate(156 423)">
                        <g opacity=".8">
                            <use fill="#000" filter="url(#ybda1dpv5i)" xlink:href="#qlhhscodnj"/>
                            <use fill="#FFF" xlink:href="#qlhhscodnj"/>
                        </g>
                        <text fill="#444" font-family="AppleSDGothicNeo-Medium, Apple SD Gothic Neo" font-size="10.29" font-weight="400">
                            <tspan x="23.746" y="65.199">진단명</tspan>
                        </text>
                        <text fill="#444" font-family="AppleSDGothicNeo-Medium, Apple SD Gothic Neo" font-size="10.29" font-weight="400">
                            <tspan x="23.746" y="88.154">관련의학과</tspan>
                        </text>
                        <text fill="#444" font-family="AppleSDGothicNeo-Medium, Apple SD Gothic Neo" font-size="10.29" font-weight="400">
                            <tspan x="23.746" y="111.109">중증도</tspan>
                        </text>
                        <circle cx="72.426" cy="108.045" r="5.145" fill="#DCF4F6"/>
                        <circle cx="88.257" cy="108.045" r="5.145" fill="#DAF8EB"/>
                        <circle cx="104.088" cy="108.045" r="5.145" fill="#FE922A"/>
                        <circle cx="119.918" cy="108.045" r="5.145" fill="#F9DADD"/>
                        <circle cx="135.749" cy="108.045" r="5.145" fill="#EBCCCE"/>
                        <text fill="#444" font-family="AppleSDGothicNeo-Medium, Apple SD Gothic Neo" font-size="10.29" font-weight="400">
                            <tspan x="23.746" y="134.063">종합의견</tspan>
                        </text>
                        <text fill="#5D5D5D" font-family="AppleSDGothicNeo-Medium, Apple SD Gothic Neo" font-size="10.29" font-weight="400">
                            <tspan x="202.044" y="24.831">21.01.26</tspan>
                        </text>
                        <path fill="#DDD" d="M23.746 38.785H238.25400000000002V39.785H23.746z"/>
                        <text fill="#999" font-family="AppleSDGothicNeo-Medium, Apple SD Gothic Neo" font-size="10.29" font-weight="400">
                            <tspan x="64.115" y="65.199">소화기질환</tspan>
                        </text>
                        <rect width="116" height="5.541" x="122.254" y="59.366" fill="#DAF8EB" rx="2.77"/>
                        <rect width="74" height="5.541" x="122.302" y="59.366" fill="#48D99C" rx="2.77"/>
                        <text fill="#999" font-family="AppleSDGothicNeo-Medium, Apple SD Gothic Neo" font-size="10.29" font-weight="400">
                            <tspan x="81.529" y="88.154">내과</tspan>
                        </text>
                        <text fill="#999" font-family="AppleSDGothicNeo-Medium, Apple SD Gothic Neo" font-size="10.29" font-weight="400">
                            <tspan x="23.746" y="157.018">되도록이면 빠르게 병원에 방문하시는 것이 좋습니다.</tspan> <tspan x="23.746" y="170.474">증상에 대해 치료가 즉시 필요합니다.</tspan>
                        </text>
                    </g>
                    <g transform="translate(-930 -1140) translate(0 1080) translate(930 60) translate(156 175)">
                        <g>
                            <use fill="#000" filter="url(#51aja89n3k)" xlink:href="#tzuji5cjul"/>
                            <use fill="#FFF" xlink:href="#tzuji5cjul"/>
                        </g>
                        <text fill="#444" font-family="AppleSDGothicNeo-Medium, Apple SD Gothic Neo" font-size="14.3" font-weight="400">
                            <tspan x="33" y="91.1">진단명</tspan>
                        </text>
                        <text fill="#444" font-family="AppleSDGothicNeo-Medium, Apple SD Gothic Neo" font-size="14.3" font-weight="400">
                            <tspan x="33" y="123">관련의학과</tspan>
                        </text>
                        <text fill="#444" font-family="AppleSDGothicNeo-Medium, Apple SD Gothic Neo" font-size="14.3" font-weight="400">
                            <tspan x="33" y="154.9">중증도</tspan>
                        </text>
                        <circle cx="100.65" cy="150.15" r="7.15" fill="#DCF4F6"/>
                        <circle cx="122.65" cy="150.15" r="7.15" fill="#48D99C"/>
                        <circle cx="144.65" cy="150.15" r="7.15" fill="#FEE9D4"/>
                        <circle cx="166.65" cy="150.15" r="7.15" fill="#F9DADD"/>
                        <circle cx="188.65" cy="150.15" r="7.15" fill="#EBCCCE"/>
                        <text fill="#444" font-family="AppleSDGothicNeo-Medium, Apple SD Gothic Neo" font-size="14.3" font-weight="400">
                            <tspan x="33" y="186.8">종합의견</tspan>
                        </text>
                        <text fill="#5D5D5D" font-family="AppleSDGothicNeo-Medium, Apple SD Gothic Neo" font-size="14.3" font-weight="400">
                            <tspan x="277.976" y="35">21.04.26</tspan>
                        </text>
                        <path fill="#DDD" d="M33 53.9H331.1V55H33z"/>
                        <text fill="#999" font-family="AppleSDGothicNeo-Medium, Apple SD Gothic Neo" font-size="14.3" font-weight="400">
                            <tspan x="89.1" y="91.1">편두통</tspan>
                        </text>
                        <rect width="179.3" height="7.7" x="151.8" y="82.5" fill="#DAF8EB" rx="3.85"/>
                        <rect width="119.9" height="7.7" x="151.8" y="82.5" fill="#48D99C" rx="3.85"/>
                        <text fill="#999" font-family="AppleSDGothicNeo-Medium, Apple SD Gothic Neo" font-size="14.3" font-weight="400">
                            <tspan x="113.3" y="123">신경의학과</tspan>
                        </text>
                        <text fill="#999" font-family="AppleSDGothicNeo-Medium, Apple SD Gothic Neo" font-size="14.3" font-weight="400">
                            <tspan x="33" y="218.7">아래 나열된 증상 중 한가지 이상에 해당된다면 병원</tspan> <tspan x="33" y="237.4">에 방문하셔서 증상 체크를 하시기를 추천합니다.</tspan>
                        </text>
                    </g>
                </g>
            </g>
        </g>
    </g>
</svg>
