<svg xmlns="http://www.w3.org/2000/svg" width="175" height="60" viewBox="0 0 175 60">
    <defs>
        <linearGradient id="jtkyji9jla" x1="50%" x2="50%" y1="0%" y2="100%">
            <stop offset="0%" stop-color="#1E79AF"/>
            <stop offset="100%" stop-color="#63FFD3"/>
        </linearGradient>
        <linearGradient id="3g9yxo8fpb" x1="84.718%" x2="5.244%" y1="28.431%" y2="78.247%">
            <stop offset="0%" stop-color="#DC4057"/>
            <stop offset="100%" stop-color="#9E36BB"/>
        </linearGradient>
        <linearGradient id="ymnvrczjrc" x1="50%" x2="50%" y1="0%" y2="97.826%">
            <stop offset="0%" stop-color="#FF9676"/>
            <stop offset="100%" stop-color="#FFD074"/>
        </linearGradient>
        <linearGradient id="hi4idx3u3d" x1="17.444%" x2="100%" y1="19.669%" y2="80.331%">
            <stop offset="0%" stop-color="#51C6AD"/>
            <stop offset="100%" stop-color="#D5FFA1"/>
        </linearGradient>
    </defs>
    <g fill="none" fill-rule="evenodd">
        <g>
            <g>
                <g transform="translate(-565 -582) translate(0 150) translate(565 432)">
                    <rect width="175" height="60" fill="#000" rx="7.477"/>
                    <g>
                        <path fill="url(#jtkyji9jla)" d="M1.095-.18C.602-.023.283.485.283 1.255l.003 24.218c0 .76.309 1.262.788 1.429L14.372 13.35 1.095-.18" transform="translate(13.077 24.66)"/>
                        <path fill="url(#3g9yxo8fpb)" d="M1.074 26.902c.345.12.778.063 1.249-.2l16.227-9.094-4.178-4.258L1.074 26.902" transform="translate(13.077 24.66)"/>
                        <path fill="url(#ymnvrczjrc)" d="M18.553 17.608l5.533-3.1c1.122-.632 1.122-1.658 0-2.288l-5.554-3.112-4.16 4.24 4.18 4.26" transform="translate(13.077 24.66)"/>
                        <path fill="url(#hi4idx3u3d)" d="M18.531 9.108L2.323.026C1.863-.23 1.439-.29 1.096-.18l13.276 13.528 4.16-4.24" transform="translate(13.077 24.66)"/>
                    </g>
                    <path fill="#FFF" d="M60.653 43.934l-3.437.802c-1.392.223-2.643.42-3.967.42-6.628 0-9.154-4.972-9.154-8.864 0-4.752 3.578-9.159 9.707-9.159 1.297 0 2.545.195 3.681.51 1.801.516 2.644 1.152 3.17 1.524l-1.996 1.932-.842.192.6-.974c-.813-.81-2.307-2.303-5.143-2.303-3.791 0-6.651 2.937-6.651 7.225 0 4.606 3.265 8.938 8.503 8.938 1.54 0 2.332-.315 3.051-.61V39.62l-3.629.2 1.924-1.053h5.092l-.623.61c-.167.146-.19.195-.237.39-.025.223-.049.933-.049 1.182v2.986zm7.882.906c-4.076 0-6.252-3.233-6.252-6.161 0-3.421 2.741-6.348 6.638-6.348 3.767 0 6.125 3.007 6.125 6.164 0 3.083-2.33 6.345-6.511 6.345zm3.206-2.113c.615-.836.769-1.88.769-2.897 0-2.3-1.079-6.689-4.255-6.689-.849 0-1.691.337-2.306.887-1.003.914-1.18 2.063-1.18 3.19 0 2.581 1.256 6.838 4.358 6.838 1 0 2.022-.495 2.614-1.33zm10.436 2.113c-4.074 0-6.255-3.233-6.255-6.161 0-3.421 2.741-6.348 6.64-6.348 3.768 0 6.129 3.007 6.129 6.164 0 3.083-2.333 6.345-6.514 6.345zm3.206-2.113c.62-.836.77-1.88.77-2.897 0-2.3-1.075-6.689-4.254-6.689-.846 0-1.697.337-2.311.887-1.002.914-1.18 2.063-1.18 3.19 0 2.581 1.252 6.838 4.359 6.838 1.003 0 2.026-.495 2.616-1.33zm12.688-9.114c.589.493 1.817 1.54 1.817 3.525 0 1.934-1.07 2.846-2.15 3.71-.33.339-.718.708-.718 1.277 0 .579.387.892.666 1.126l.926.728c1.126.969 2.152 1.857 2.152 3.66 0 2.458-2.334 4.936-6.743 4.936-3.715 0-5.511-1.803-5.511-3.736 0-.941.46-2.273 1.976-3.186 1.59-.99 3.742-1.122 4.895-1.2-.36-.474-.77-.97-.77-1.78 0-.442.13-.706.256-1.018-.28.027-.563.055-.82.055-2.719 0-4.255-2.067-4.255-4.103 0-1.202.537-2.535 1.642-3.501 1.462-1.226 3.204-1.438 4.59-1.438h5.282l-1.643.945h-1.592zM96.255 45.21c-.21-.028-.337-.028-.59-.028-.233 0-1.618.051-2.69.418-.568.212-2.208.836-2.208 2.692 0 1.852 1.77 3.187 4.51 3.187 2.461 0 3.768-1.202 3.768-2.82 0-1.333-.846-2.036-2.79-3.449zm.737-4.964c.592-.603.644-1.436.644-1.909 0-1.878-1.1-4.805-3.23-4.805-.665 0-1.385.34-1.794.866-.434.544-.564 1.25-.564 1.929 0 1.75 1.002 4.651 3.204 4.651.643 0 1.334-.318 1.74-.732zm8.085 2.3c0 1.015.178 1.173 1.02 1.253.44.053.877.076 1.31.128l-.948.576h-4.517c.592-.784.694-.862.694-1.384v-.583l-.01-15.532h-1.995l1.92-.943h3.667c-.795.47-1.033.755-1.134 1.67l-.007 14.815zm12.601.202l-1.226 1.18c-.283.158-.565.342-.846.473-.852.394-1.718.493-2.487.493-.82 0-2.103-.054-3.413-1.02-1.82-1.305-2.615-3.55-2.615-5.506 0-4.05 3.236-6.037 5.875-6.037.922 0 1.87.235 2.64.731 1.28.864 1.612 1.985 1.796 2.586l-6.027 2.481-1.973.157c.638 3.32 2.843 5.252 5.28 5.252 1.216 0 2.12-.405 2.948-.822 0 0 .167-.088.048.032zm-3.636-6.605c.49-.181.744-.338.744-.702 0-1.043-1.158-2.248-2.541-2.248-1.024 0-2.947.812-2.947 3.635 0 .44.052.91.078 1.379l4.666-2.064zm11.025 6.717v6.654h-1.296V32.583h1.296v1.928c.845-1.246 2.389-2.234 4.182-2.234 3.215 0 5.381 2.485 5.381 6.42 0 3.909-2.166 6.447-5.381 6.447-1.693 0-3.21-.89-4.182-2.284zm8.17-4.163c0-2.965-1.517-5.227-4.207-5.227-1.67 0-3.268 1.337-3.963 2.504v5.42c.695 1.169 2.292 2.555 3.963 2.555 2.69 0 4.207-2.281 4.207-5.252zm3.164-10.79h1.296V44.84H136.4V27.908zm12.059 16.895c-.087-.425-.152-.8-.2-1.112-.04-.312-.062-.631-.062-.955-.445.665-1.075 1.218-1.88 1.654-.804.439-1.57.654-2.618.654-1.264 0-2.244-.317-2.944-.96-.697-.64-1.048-1.51-1.048-2.61 0-1.099.508-1.99 1.521-2.673 1.014-.685 2.323-1.025 3.944-1.025h3.025v-1.523c0-.877-.294-1.567-.88-2.067-.587-.5-1.412-.754-2.482-.754-.978 0-1.77.231-2.375.682-.598.46-.9 1.03-.9 1.716h-1.327l-.027-.066c-.048-.925.367-1.737 1.25-2.439.88-.7 2.033-1.053 3.451-1.053 1.414 0 2.558.347 3.42 1.04.862.684 1.294 1.674 1.294 2.969v6.046c0 .434.02.854.074 1.262.054.41.142.819.258 1.214h-1.494zm-4.602-.963c1.102 0 1.893-.25 2.702-.747.804-.493 1.351-1.136 1.638-1.915v-2.353h-3.04c-1.16 0-2.12.261-2.877.79-.757.526-1.14 1.163-1.14 1.904 0 .699.242 1.258.726 1.681.484.428 1.147.64 1.991.64zm8.39 4.58c.277.126.75.204 1.05.204.793 0 1.345-.331 1.841-1.498l.946-2.184-5.108-12.358h1.447l4.381 10.709 4.34-10.71h1.466l-6.23 14.952c-.646 1.54-1.663 2.282-3.06 2.282-.42 0-.973-.076-1.296-.178l.222-1.219zM43.998 13.948c0-2.63 1.933-4.321 4.337-4.321 1.611 0 2.664.777 3.321 1.728l-1.177.69c-.446-.627-1.227-1.115-2.144-1.115-1.635 0-2.85 1.252-2.85 3.018 0 1.74 1.215 3.017 2.85 3.017.843 0 1.587-.388 1.958-.751v-1.29h-2.478v-1.29h3.916v3.118c-.805.914-1.97 1.528-3.396 1.528-2.404 0-4.337-1.715-4.337-4.332zm9.526 4.17V9.764h5.663v1.29h-4.214v2.153H59.1v1.29h-4.127v2.33h4.214v1.29h-5.663zm9.674 0v-7.063h-2.503v-1.29h6.456v1.29h-2.503v7.062h-1.45zm8.992-8.353h1.449v8.352h-1.45V9.765zm5.487 8.352v-7.062h-2.503v-1.29h6.455v1.29h-2.502v7.062h-1.45zm8.632-4.17c0-2.492 1.747-4.32 4.226-4.32 2.465 0 4.225 1.828 4.225 4.32s-1.76 4.32-4.225 4.32c-2.48 0-4.226-1.828-4.226-4.32zm6.964 0c0-1.728-1.078-3.017-2.738-3.017-1.674 0-2.739 1.29-2.739 3.018 0 1.714 1.065 3.017 2.74 3.017 1.659 0 2.737-1.303 2.737-3.017zm8.942 4.17l-4.312-5.973v5.973h-1.45V9.765h1.487l4.226 5.785V9.765h1.45v8.352h-1.4z"/>
                </g>
            </g>
        </g>
    </g>
</svg>
