<svg xmlns="http://www.w3.org/2000/svg" width="175" height="60" viewBox="0 0 175 60">
    <g fill="none" fill-rule="evenodd">
        <g>
            <g>
                <g transform="translate(-360 -582) translate(0 150) translate(360 432)">
                    <rect width="175" height="60" fill="#000" rx="7.477"/>
                    <path fill="#FFF" d="M67.775 43.868h-2.979l-1.632-5.184h-5.672l-1.554 5.184h-2.9l5.62-17.65h3.47l5.647 17.65zm-5.103-7.36h-4.686l1.45-4.608c.38-1.466.656-2.575.828-3.325h.053c.431 1.745.724 2.854.88 3.325l1.475 4.609zm19.554.84c0 2.165-.578 3.876-1.735 5.132-1.036 1.118-2.323 1.676-3.86 1.676-1.657 0-2.848-.602-3.574-1.806h-.052v6.704h-2.797V35.331c0-1.36-.035-2.757-.103-4.19h2.46l.155 2.017h.053c.932-1.52 2.348-2.278 4.247-2.278 1.485 0 2.725.593 3.716 1.78.995 1.188 1.49 2.75 1.49 4.688zm-2.849.104c0-1.239-.275-2.26-.829-3.064-.604-.838-1.416-1.257-2.434-1.257-.69 0-1.317.233-1.877.693-.562.464-.93 1.07-1.1 1.821-.087.35-.13.637-.13.862v2.123c0 .925.28 1.706.841 2.344.562.638 1.291.957 2.188.957 1.054 0 1.873-.411 2.46-1.231.587-.821.881-1.903.881-3.248zm17.327-.104c0 2.165-.579 3.876-1.737 5.132-1.035 1.118-2.322 1.676-3.858 1.676-1.658 0-2.849-.602-3.573-1.806h-.052v6.704h-2.797V35.331c0-1.36-.035-2.757-.103-4.19h2.46l.155 2.017h.053c.93-1.52 2.346-2.278 4.247-2.278 1.484 0 2.723.593 3.717 1.78.99 1.188 1.488 2.75 1.488 4.688zm-2.85.104c0-1.239-.276-2.26-.83-3.064-.604-.838-1.414-1.257-2.433-1.257-.691 0-1.317.233-1.878.693-.562.464-.928 1.07-1.1 1.821-.085.35-.13.637-.13.862v2.123c0 .925.282 1.706.84 2.344.562.637 1.291.957 2.19.957 1.054 0 1.874-.411 2.46-1.231.588-.821.882-1.903.882-3.248zm19.037 1.467c0 1.501-.516 2.723-1.55 3.666-1.138 1.03-2.721 1.545-4.756 1.545-1.878 0-3.384-.366-4.524-1.1l.648-2.357c1.228.751 2.575 1.128 4.043 1.128 1.053 0 1.873-.242 2.462-.722.586-.48.879-1.124.879-1.928 0-.716-.242-1.32-.726-1.81-.481-.489-1.285-.944-2.408-1.364-3.056-1.153-4.583-2.841-4.583-5.061 0-1.451.535-2.641 1.607-3.567 1.067-.927 2.492-1.39 4.273-1.39 1.589 0 2.908.28 3.962.838l-.7 2.306c-.983-.542-2.096-.812-3.34-.812-.984 0-1.753.245-2.304.733-.465.437-.699.969-.699 1.599 0 .697.266 1.274.802 1.728.465.419 1.311.872 2.539 1.362 1.502.611 2.605 1.326 3.315 2.146.707.817 1.06 1.84 1.06 3.06zm9.246-5.656h-3.083v6.18c0 1.571.544 2.356 1.632 2.356.5 0 .915-.043 1.242-.13l.078 2.146c-.551.209-1.276.313-2.175.313-1.104 0-1.968-.34-2.59-1.02-.621-.683-.933-1.826-.933-3.432v-6.415h-1.837v-2.123h1.837v-2.33l2.746-.838v3.168h3.083v2.125zm13.908 4.137c0 1.956-.553 3.563-1.658 4.819-1.158 1.293-2.695 1.937-4.612 1.937-1.847 0-3.317-.62-4.414-1.858-1.096-1.239-1.645-2.802-1.645-4.687 0-1.972.564-3.588 1.696-4.844 1.13-1.257 2.654-1.886 4.57-1.886 1.847 0 3.334.62 4.455 1.86 1.073 1.203 1.608 2.756 1.608 4.659zm-2.901.092c0-1.174-.248-2.18-.75-3.02-.587-1.016-1.425-1.523-2.511-1.523-1.124 0-1.978.508-2.565 1.523-.502.84-.75 1.863-.75 3.073 0 1.173.248 2.18.75 3.018.605 1.016 1.45 1.523 2.54 1.523 1.068 0 1.906-.517 2.51-1.55.516-.855.776-1.872.776-3.044zm11.992-3.864c-.277-.052-.572-.078-.882-.078-.984 0-1.745.375-2.28 1.127-.465.663-.699 1.501-.699 2.513v6.678h-2.795l.026-8.719c0-1.467-.035-2.802-.105-4.007h2.436l.102 2.436h.078c.295-.837.76-1.511 1.398-2.016.623-.455 1.296-.682 2.021-.682.259 0 .492.018.7.052v2.696zm12.507 3.275c0 .506-.033.933-.102 1.282h-8.39c.033 1.258.438 2.22 1.217 2.882.707.593 1.621.89 2.744.89 1.242 0 2.376-.2 3.395-.602l.438 1.963c-1.191.525-2.597.787-4.22.787-1.952 0-3.484-.581-4.599-1.742-1.112-1.16-1.67-2.719-1.67-4.674 0-1.919.519-3.517 1.556-4.792 1.086-1.36 2.554-2.041 4.401-2.041 1.814 0 3.188.68 4.12 2.041.739 1.081 1.11 2.418 1.11 4.006zm-2.667-.734c.019-.838-.164-1.562-.543-2.174-.484-.786-1.228-1.179-2.229-1.179-.914 0-1.658.384-2.226 1.153-.465.611-.742 1.345-.827 2.199h5.825v.001zM61.748 15.36c0 1.56-.463 2.735-1.388 3.525-.857.728-2.074 1.093-3.65 1.093-.782 0-1.451-.035-2.012-.104v-8.53c.731-.119 1.518-.18 2.368-.18 1.502 0 2.634.33 3.398.99.855.748 1.284 1.815 1.284 3.205zm-1.45.038c0-1.012-.265-1.788-.795-2.33-.53-.54-1.304-.81-2.323-.81-.433 0-.801.03-1.107.09v6.485c.17.026.479.038.929.038 1.052 0 1.864-.295 2.436-.887.572-.591.86-1.454.86-2.586zm9.135 1.325c0 .961-.271 1.75-.814 2.367-.57.636-1.324.953-2.266.953-.908 0-1.63-.304-2.17-.914-.537-.61-.806-1.377-.806-2.303 0-.968.277-1.762.833-2.38.556-.616 1.304-.925 2.245-.925.908 0 1.638.304 2.19.913.524.591.788 1.355.788 2.289zm-1.426.045c0-.577-.123-1.072-.368-1.484-.289-.499-.7-.748-1.233-.748-.553 0-.972.249-1.26.748-.248.412-.37.915-.37 1.51 0 .576.124 1.07.37 1.483.297.499.711.748 1.247.748.524 0 .936-.253 1.233-.761.254-.42.381-.92.381-1.496zm11.731-3.12l-1.935 6.253h-1.259l-.801-2.715c-.204-.678-.37-1.352-.498-2.02h-.025c-.119.687-.284 1.36-.497 2.02l-.851 2.715h-1.274l-1.82-6.253h1.414l.699 2.973c.169.703.308 1.372.42 2.006h.024c.103-.522.272-1.188.51-1.993l.878-2.984h1.12l.841 2.92c.204.712.369 1.398.496 2.059h.038c.093-.644.234-1.33.42-2.059l.75-2.92h1.35v-.002zm7.127 6.253H85.49V16.32c0-1.104-.415-1.656-1.246-1.656-.408 0-.737.152-.993.455-.253.304-.382.662-.382 1.072v3.708h-1.375v-4.464c0-.55-.017-1.145-.05-1.79h1.209l.064.978h.038c.16-.304.399-.554.712-.754.373-.234.79-.352 1.246-.352.578 0 1.058.188 1.44.566.474.463.712 1.154.712 2.072v3.746zm2.417-9.121h1.374v9.12h-1.374v-9.12zm9.467 5.943c0 .961-.272 1.75-.815 2.367-.569.636-1.325.953-2.265.953-.909 0-1.632-.304-2.17-.914-.537-.61-.806-1.377-.806-2.303 0-.968.276-1.762.833-2.38.556-.616 1.303-.925 2.244-.925.909 0 1.637.304 2.19.913.525.591.789 1.355.789 2.289zm-1.427.045c0-.577-.124-1.072-.369-1.484-.287-.499-.699-.748-1.232-.748-.553 0-.973.249-1.26.748-.247.412-.369.915-.369 1.51 0 .576.124 1.07.369 1.483.298.499.712.748 1.247.748.525 0 .936-.253 1.232-.761.256-.42.382-.92.382-1.496zm8.08 3.133h-1.234l-.103-.72h-.038c-.422.574-1.024.862-1.806.862-.584 0-1.056-.19-1.411-.567-.323-.342-.484-.768-.484-1.273 0-.764.314-1.346.948-1.75.632-.403 1.522-.6 2.667-.591v-.117c0-.823-.428-1.235-1.284-1.235-.61 0-1.148.156-1.613.463l-.279-.912c.575-.36 1.284-.54 2.121-.54 1.616 0 2.427.862 2.427 2.586v2.303c0 .625.03 1.122.089 1.49zm-1.427-2.149v-.964c-1.517-.027-2.275.394-2.275 1.26 0 .326.087.57.264.733.177.163.403.244.672.244.301 0 .583-.097.84-.289.259-.194.418-.439.477-.74.014-.068.022-.15.022-.244zm9.238 2.149h-1.22l-.064-1.004h-.038c-.39.764-1.053 1.146-1.986 1.146-.745 0-1.365-.296-1.857-.888-.492-.591-.737-1.36-.737-2.302 0-1.012.266-1.832.801-2.458.518-.584 1.153-.875 1.909-.875.83 0 1.411.282 1.742.849h.026v-3.59h1.376v7.437c0 .609.016 1.17.048 1.685zm-1.424-2.637V16.22c0-.18-.013-.326-.038-.437-.078-.335-.244-.616-.497-.842-.256-.227-.564-.341-.92-.341-.513 0-.914.205-1.21.618-.292.412-.44.939-.44 1.582 0 .618.14 1.12.422 1.505.298.412.7.617 1.202.617.451 0 .812-.171 1.086-.514.265-.317.395-.7.395-1.145zm13.181-.541c0 .961-.271 1.75-.814 2.367-.57.636-1.322.953-2.266.953-.906 0-1.629-.304-2.17-.914-.537-.61-.806-1.377-.806-2.303 0-.968.277-1.762.833-2.38.556-.616 1.304-.925 2.247-.925.906 0 1.637.304 2.188.913.525.591.788 1.355.788 2.289zm-1.424.045c0-.577-.123-1.072-.369-1.484-.29-.499-.699-.748-1.234-.748-.551 0-.97.249-1.26.748-.247.412-.37.915-.37 1.51 0 .576.124 1.07.37 1.483.297.499.712.748 1.247.748.524 0 .938-.253 1.234-.761.253-.42.382-.92.382-1.496zm8.816 3.133h-1.373V16.32c0-1.104-.415-1.656-1.248-1.656-.408 0-.737.152-.992.455-.254.304-.381.662-.381 1.072v3.708h-1.376v-4.464c0-.55-.016-1.145-.049-1.79h1.207l.064.978h.038c.162-.304.4-.554.713-.754.373-.234.79-.352 1.247-.352.576 0 1.056.188 1.438.566.476.463.712 1.154.712 2.072v3.746zm9.252-5.211H140.1v3.037c0 .772.269 1.158.801 1.158.247 0 .452-.022.613-.065l.035 1.054c-.271.104-.628.155-1.067.155-.543 0-.966-.167-1.272-.501-.306-.334-.459-.897-.459-1.686V14.69h-.903v-1.042h.903v-1.146l1.348-.41v1.555h1.513v1.043h.002zm7.277 5.21h-1.376v-3.554c0-1.12-.414-1.682-1.245-1.682-.637 0-1.073.325-1.312.975-.04.137-.064.304-.064.5v3.76h-1.373v-9.12h1.373v3.769h.026c.433-.686 1.054-1.028 1.858-1.028.57 0 1.04.188 1.414.566.466.47.699 1.171.699 2.097V19.9zm7.507-3.421c0 .25-.018.459-.051.63h-4.123c.019.618.215 1.089.597 1.415.349.292.799.438 1.35.438.61 0 1.166-.099 1.667-.296l.215.965c-.586.258-1.276.386-2.075.386-.958 0-1.712-.285-2.258-.855-.548-.57-.82-1.336-.82-2.296 0-.943.254-1.728.764-2.354.533-.669 1.253-1.003 2.162-1.003.89 0 1.565.334 2.021 1.003.369.53.551 1.187.551 1.967zm-1.312-.36c.01-.412-.08-.768-.266-1.067-.239-.386-.602-.58-1.094-.58-.449 0-.815.188-1.094.566-.228.301-.363.66-.408 1.081h2.862zM36.554 28.874c.044 5.164 4.47 6.871 4.525 6.89-.027.12-.693 2.464-2.354 4.844-1.386 2.094-2.839 4.142-5.146 4.18-2.24.052-2.995-1.333-5.565-1.333-2.595 0-3.398 1.295-5.548 1.385-2.197.082-3.876-2.237-5.312-4.313-2.872-4.239-5.108-11.946-2.11-17.19 1.452-2.572 4.1-4.229 6.932-4.273 2.2-.045 4.241 1.501 5.593 1.501 1.326 0 3.85-1.85 6.452-1.573 1.089.032 4.187.434 6.186 3.38-.161.097-3.691 2.193-3.653 6.502zm-4.233-12.67c-1.207 1.438-3.137 2.538-5.017 2.396-.246-1.94.707-4.005 1.773-5.264 1.205-1.43 3.298-2.524 4.972-2.6.22 2.018-.572 4.006-1.728 5.467z"/>
                </g>
            </g>
        </g>
    </g>
</svg>
